<svg width="9" height="8" viewBox="0 0 9 8" fill="none" xmlns="http://www.w3.org/2000/svg">
<path fill-rule="evenodd" clip-rule="evenodd" d="M5.21382 0.938669C5.00909 0.78834 4.76172 0.707275 4.50773 0.707275C4.25373 0.707275 4.00637 0.78834 3.80164 0.938669L3.38823 1.2416C3.32014 1.29164 3.24098 1.32449 3.15747 1.33738L2.65006 1.41534C2.39922 1.4539 2.16721 1.57145 1.98775 1.75091C1.8083 1.93036 1.69074 2.16237 1.65218 2.41322L1.57422 2.92107C1.56134 3.00458 1.52848 3.08374 1.47844 3.15183L1.17552 3.56524C1.02519 3.76997 0.944122 4.01733 0.944122 4.27133C0.944122 4.52532 1.02519 4.77269 1.17552 4.97742L1.47844 5.39082C1.52878 5.45898 1.5613 5.53783 1.57422 5.62158L1.65218 6.12854C1.69074 6.37939 1.8083 6.6114 1.98775 6.79086C2.16721 6.97031 2.39922 7.08786 2.65006 7.12643L3.15702 7.20439C3.24033 7.2173 3.31962 7.24983 3.38778 7.30016L3.80119 7.60309C4.00592 7.75342 4.25329 7.83449 4.50728 7.83449C4.76128 7.83449 5.00864 7.75342 5.21337 7.60309L5.62678 7.30016C5.6948 7.25 5.77399 7.21713 5.85754 7.20439L6.3645 7.12643C6.61549 7.08793 6.84765 6.97035 7.0272 6.7908C7.20675 6.61124 7.32433 6.37909 7.36283 6.1281L7.44079 5.62114C7.45371 5.53783 7.48623 5.45854 7.53657 5.39038L7.83949 4.97697C7.98982 4.77224 8.07089 4.52488 8.07089 4.27088C8.07089 4.01689 7.98982 3.76952 7.83949 3.56479L7.53657 3.15138C7.48654 3.08329 7.45369 3.00413 7.44079 2.92062L7.36327 2.41322C7.32471 2.16237 7.20716 1.93036 7.0277 1.75091C6.84825 1.57145 6.61623 1.4539 6.36539 1.41534L5.85843 1.33738C5.77493 1.32448 5.69577 1.29162 5.62767 1.2416L5.21382 0.938669ZM4.19723 1.47681C4.3821 1.34094 4.6338 1.34094 4.81823 1.47681L5.23164 1.77974C5.38667 1.89378 5.56664 1.96818 5.75731 1.99758L6.26338 2.0751C6.49057 2.10984 6.66832 2.28804 6.70307 2.51479L6.78058 3.0213C6.80998 3.21152 6.88438 3.3915 6.99842 3.54697L7.30135 3.95993C7.43722 4.14481 7.43722 4.39651 7.30135 4.58094L6.99842 4.99435C6.88447 5.14943 6.80973 5.32979 6.78058 5.52001L6.70307 6.02608C6.68621 6.13667 6.63445 6.23897 6.55536 6.31807C6.47626 6.39716 6.37396 6.44892 6.26338 6.46578L5.75686 6.54329C5.56663 6.57244 5.38628 6.64718 5.23119 6.76113L4.81823 7.06406C4.63335 7.19993 4.38166 7.19993 4.19723 7.06406L3.78382 6.76113C3.62873 6.64718 3.44838 6.57244 3.25815 6.54329L2.75208 6.46578C2.6415 6.44892 2.5392 6.39716 2.4601 6.31807C2.381 6.23897 2.32925 6.13667 2.31239 6.02608L2.23487 5.51957C2.20572 5.32934 2.13098 5.14899 2.01703 4.9939L1.7141 4.58094C1.64802 4.4909 1.61239 4.38212 1.61239 4.27044C1.61239 4.15875 1.64802 4.04997 1.7141 3.95993L2.01703 3.54653C2.13108 3.3915 2.20547 3.21152 2.23487 3.02086L2.31239 2.51479C2.34714 2.28759 2.52533 2.10984 2.75208 2.0751L3.25859 1.99758C3.44882 1.96843 3.62918 1.89369 3.78426 1.77974L4.19723 1.47681ZM5.96891 3.72739C6.02793 3.66406 6.06006 3.58028 6.05853 3.49373C6.057 3.40717 6.02194 3.32458 5.96072 3.26337C5.89951 3.20215 5.81692 3.16709 5.73037 3.16556C5.64381 3.16403 5.56004 3.19616 5.4967 3.25518L4.06224 4.68963L3.51876 4.14615C3.45542 4.08713 3.37165 4.055 3.28509 4.05653C3.19853 4.05805 3.11595 4.09312 3.05473 4.15433C2.99352 4.21555 2.95845 4.29813 2.95692 4.38469C2.9554 4.47125 2.98753 4.55502 3.04654 4.61836L3.82614 5.39795C3.88878 5.46052 3.9737 5.49567 4.06224 5.49567C4.15078 5.49567 4.2357 5.46052 4.29835 5.39795L5.96891 3.72739Z" fill="#00ACE8"/>
</svg>
