<svg width="45" height="45" viewBox="0 0 45 45" fill="none" xmlns="http://www.w3.org/2000/svg">
<rect x="0.5" y="0.5" width="44" height="44" rx="7.5" stroke="url(#paint0_linear_195_164)"/>
<path d="M21.6791 20.5701C18.7348 20.428 16.6882 21.4778 15.5393 23.7193C13.816 27.0816 15.2403 32.5834 20.9895 32.5834C26.7388 32.5834 26.9052 27.0278 26.9052 26.4458C26.9052 26.0578 26.9052 23.8883 26.9052 19.9374C28.1349 20.7163 29.1716 21.1851 30.0155 21.3439C30.8594 21.5028 31.3959 21.5732 31.625 21.5551V18.3172C30.8444 18.2231 30.1694 18.0438 29.6 17.7792C28.7458 17.3822 27.052 16.2807 27.052 14.6662C27.0532 14.6741 27.0532 14.2576 27.052 13.4167H23.493C23.4824 21.3248 23.4824 25.6678 23.493 26.4458C23.5089 27.6128 22.6035 29.2453 20.7679 29.2453C18.9323 29.2453 18.0269 27.6142 18.0269 26.562C18.0269 25.9179 18.2481 24.9843 19.1627 24.293C19.705 23.883 20.4577 23.7193 21.6791 23.7193C21.6791 23.3415 21.6791 22.2918 21.6791 20.5701Z" stroke="white" stroke-width="1.5" stroke-linejoin="round"/>
<defs>
<linearGradient id="paint0_linear_195_164" x1="0" y1="0" x2="45.5486" y2="0.562329" gradientUnits="userSpaceOnUse">
<stop stop-color="#73E0A9"/>
<stop offset="1" stop-color="#5B68DF"/>
</linearGradient>
</defs>
</svg>
